<svg width="120" height="43" viewBox="0 0 120 43" fill="none" xmlns="http://www.w3.org/2000/svg">
<path d="M12.5379 29.2801L3.57951 7.78637H-0.00012207L10.7467 34.7477H14.3264L25.0759 7.78637H21.4963L12.5379 29.2801Z" fill="white"/>
<path d="M30.448 20.3244H39.4011V16.7447H30.448V11.366H39.4011V7.78637H26.8657V34.7477H41.1936V31.0712H30.4467L30.448 20.3244Z" fill="white"/>
<path d="M93.1393 35.2422C71.7105 45.9957 56.2677 30.0159 56.2677 30.0159L53.7341 27.4823C56.1787 27.2414 58.4463 26.0998 60.0959 24.2796C61.7455 22.4594 62.6591 20.0908 62.6591 17.6343C62.6591 15.1779 61.7455 12.8093 60.0959 10.9891C58.4463 9.16892 56.1787 8.02734 53.7341 7.78637L42.9846 7.78637V34.6535H46.5643V27.4943C47.1502 27.4732 47.7337 27.5786 48.2752 27.8032C48.8167 28.0279 49.3035 28.3665 49.7024 28.7962L53.7262 32.5588C53.7262 32.5588 70.9257 50.1706 94.9212 38.3498L93.1393 35.2422ZM52.1193 23.8656L46.5682 23.908V11.366H53.7275C55.2249 11.5959 56.5903 12.3548 57.5761 13.505C58.562 14.6553 59.1029 16.1208 59.1009 17.6357C59.101 19.143 58.5578 20.5999 57.5709 21.7393C56.584 22.8786 55.2195 23.6241 53.7275 23.839C53.4624 23.8735 52.3898 23.8616 52.1154 23.8616L52.1193 23.8656Z" fill="white"/>
<path d="M106.568 7.78637C103.912 7.78637 101.315 8.57412 99.1061 10.05C96.8973 11.5259 95.1757 13.6236 94.1591 16.0779C93.1425 18.5322 92.8765 21.2329 93.3948 23.8383C93.9131 26.4438 95.1923 28.8371 97.0708 30.7155C98.9492 32.594 101.342 33.8732 103.948 34.3915C106.553 34.9097 109.254 34.6437 111.708 33.6271C114.163 32.6105 116.26 30.889 117.736 28.6801C119.212 26.4713 120 23.8745 120 21.218C120 17.6557 118.585 14.2393 116.066 11.7204C113.547 9.20148 110.131 7.78637 106.568 7.78637ZM106.568 31.0752C104.619 31.0752 102.713 30.4972 101.093 29.4142C99.4719 28.3312 98.2086 26.7919 97.4627 24.991C96.7167 23.1901 96.5215 21.2084 96.9018 19.2965C97.282 17.3846 98.2208 15.6285 99.5991 14.2501C100.978 12.8717 102.734 11.933 104.646 11.5527C106.557 11.1724 108.539 11.3676 110.34 12.1136C112.141 12.8596 113.68 14.1228 114.763 15.7436C115.846 17.3644 116.424 19.27 116.424 21.2193C116.424 23.8332 115.386 26.3401 113.538 28.1885C111.689 30.0368 109.182 31.0752 106.568 31.0752Z" fill="white"/>
<path d="M77.9087 7.78637C75.2523 7.78689 72.6558 8.57506 70.4474 10.0512C68.2389 11.5273 66.5178 13.6252 65.5015 16.0794C64.4853 18.5337 64.2196 21.2342 64.7381 23.8395C65.2565 26.4447 66.5358 28.8378 68.4142 30.716C70.2927 32.5942 72.6858 33.8733 75.2911 34.3915C77.8964 34.9097 80.5969 34.6437 83.0511 33.6273C85.5052 32.6108 87.6029 30.8894 89.0788 28.6808C90.5548 26.4723 91.3427 23.8756 91.3429 21.2193C91.3431 19.4551 90.9957 17.7081 90.3206 16.0782C89.6455 14.4483 88.656 12.9673 87.4084 11.7199C86.1609 10.4725 84.6798 9.48308 83.0499 8.80815C81.4199 8.13323 79.6729 7.78602 77.9087 7.78637ZM77.9087 31.0752C75.9594 31.0752 74.0538 30.4972 72.433 29.4142C70.8122 28.3312 69.549 26.7919 68.803 24.991C68.057 23.19 67.8618 21.2083 68.2421 19.2965C68.6224 17.3846 69.5611 15.6285 70.9395 14.2501C72.3178 12.8717 74.074 11.933 75.9859 11.5527C77.8977 11.1724 79.8794 11.3676 81.6804 12.1136C83.4813 12.8596 85.0206 14.1228 86.1036 15.7436C87.1866 17.3644 87.7646 19.27 87.7646 21.2193C87.7646 23.8332 86.7262 26.3401 84.8779 28.1885C83.0295 30.0368 80.5226 31.0752 77.9087 31.0752Z" fill="white"/>
</svg>
